<svg width="88" height="88" viewBox="0 0 88 88" fill="none" xmlns="http://www.w3.org/2000/svg">
<path d="M0.540527 14.6263C0.540527 6.93324 6.777 0.696777 14.4701 0.696777H73.2222C80.9153 0.696777 87.1518 6.93325 87.1518 14.6263V73.3785C87.1518 81.0715 80.9153 87.308 73.2222 87.308H14.4701C6.77699 87.308 0.540527 81.0715 0.540527 73.3785V14.6263Z" fill="url(#paint0_linear_3308_272772)"/>
<path d="M53.8302 45.867C55.4579 45.867 56.7774 44.5475 56.7774 42.9198C56.7774 41.2922 55.4579 39.9727 53.8302 39.9727C52.2026 39.9727 50.8831 41.2922 50.8831 42.9198C50.8831 44.5475 52.2026 45.867 53.8302 45.867Z" stroke="white" stroke-width="2.52616" stroke-linecap="round" stroke-linejoin="round"/>
<path d="M53.8302 34.0785C55.4579 34.0785 56.7774 32.759 56.7774 31.1313C56.7774 29.5036 55.4579 28.1841 53.8302 28.1841C52.2026 28.1841 50.8831 29.5036 50.8831 31.1313C50.8831 32.759 52.2026 34.0785 53.8302 34.0785Z" stroke="white" stroke-width="2.52616" stroke-linecap="round" stroke-linejoin="round"/>
<path d="M53.8302 57.6561C55.4579 57.6561 56.7774 56.3366 56.7774 54.7089C56.7774 53.0812 55.4579 51.7617 53.8302 51.7617C52.2026 51.7617 50.8831 53.0812 50.8831 54.7089C50.8831 56.3366 52.2026 57.6561 53.8302 57.6561Z" stroke="white" stroke-width="2.52616" stroke-linecap="round" stroke-linejoin="round"/>
<path d="M30.2519 45.867C31.8796 45.867 33.1991 44.5475 33.1991 42.9198C33.1991 41.2922 31.8796 39.9727 30.2519 39.9727C28.6242 39.9727 27.3047 41.2922 27.3047 42.9198C27.3047 44.5475 28.6242 45.867 30.2519 45.867Z" stroke="white" stroke-width="2.52616" stroke-linecap="round" stroke-linejoin="round"/>
<path d="M33.1992 42.9204H50.8823" stroke="white" stroke-width="2.52616" stroke-linecap="round" stroke-linejoin="round"/>
<path d="M50.8818 31.1313H44.9874C42.0402 31.1313 40.5667 32.6049 40.5667 35.5521V50.2881C40.5667 53.2353 42.0402 54.7089 44.9874 54.7089H50.8818" stroke="white" stroke-width="2.52616" stroke-linecap="round" stroke-linejoin="round"/>
<defs>
<linearGradient id="paint0_linear_3308_272772" x1="8.44155" y1="3.19999" x2="77.6106" y2="106.108" gradientUnits="userSpaceOnUse">
<stop stop-color="#2B2B2D"/>
<stop offset="1" stop-color="#777777"/>
</linearGradient>
</defs>
</svg>
