<svg width="37" height="36" viewBox="0 0 37 36" fill="none" xmlns="http://www.w3.org/2000/svg">
<path d="M22.1033 14.1918L14.6469 21.6482C13.689 20.6904 13.0996 19.3789 13.0996 17.92C13.0996 15.0023 15.4574 12.6445 18.3751 12.6445C19.8339 12.6445 21.1454 13.234 22.1033 14.1918Z" stroke="white" stroke-width="2.52616" stroke-linecap="round" stroke-linejoin="round"/>
<path d="M26.9505 8.73953C24.3717 6.79439 21.4245 5.7334 18.3742 5.7334C13.1724 5.7334 8.32428 8.79847 4.94975 14.1034C3.62352 16.1812 3.62352 19.6736 4.94975 21.7514C6.11389 23.5786 7.4696 25.1554 8.94319 26.4227" stroke="white" stroke-width="2.52616" stroke-linecap="round" stroke-linejoin="round"/>
<path d="M13.0996 29.0161C14.7795 29.7234 16.5626 30.1065 18.3751 30.1065C23.5769 30.1065 28.425 27.0414 31.7995 21.7365C33.1258 19.6587 33.1258 16.1663 31.7995 14.0885C31.3132 13.3223 30.7827 12.6002 30.2375 11.9224" stroke="white" stroke-width="2.52616" stroke-linecap="round" stroke-linejoin="round"/>
<path d="M23.5471 18.9517C23.164 21.0294 21.4694 22.7241 19.3916 23.1072" stroke="white" stroke-width="2.52616" stroke-linecap="round" stroke-linejoin="round"/>
<path d="M14.6469 21.6479L3.63916 32.6557" stroke="white" stroke-width="2.52616" stroke-linecap="round" stroke-linejoin="round"/>
<path d="M33.1103 3.18408L22.1025 14.1918" stroke="white" stroke-width="2.52616" stroke-linecap="round" stroke-linejoin="round"/>
</svg>
