<svg width="36" height="36" viewBox="0 0 36 36" fill="none" xmlns="http://www.w3.org/2000/svg">
<path d="M29.8305 20.867C31.4582 20.867 32.7777 19.5475 32.7777 17.9198C32.7777 16.2922 31.4582 14.9727 29.8305 14.9727C28.2028 14.9727 26.8833 16.2922 26.8833 17.9198C26.8833 19.5475 28.2028 20.867 29.8305 20.867Z" stroke="white" stroke-width="2.52616" stroke-linecap="round" stroke-linejoin="round"/>
<path d="M29.8305 9.07846C31.4582 9.07846 32.7777 7.75896 32.7777 6.13127C32.7777 4.50358 31.4582 3.18408 29.8305 3.18408C28.2028 3.18408 26.8833 4.50358 26.8833 6.13127C26.8833 7.75896 28.2028 9.07846 29.8305 9.07846Z" stroke="white" stroke-width="2.52616" stroke-linecap="round" stroke-linejoin="round"/>
<path d="M29.8305 32.6561C31.4582 32.6561 32.7777 31.3366 32.7777 29.7089C32.7777 28.0812 31.4582 26.7617 29.8305 26.7617C28.2028 26.7617 26.8833 28.0812 26.8833 29.7089C26.8833 31.3366 28.2028 32.6561 29.8305 32.6561Z" stroke="white" stroke-width="2.52616" stroke-linecap="round" stroke-linejoin="round"/>
<path d="M6.25188 20.867C7.87956 20.867 9.19906 19.5475 9.19906 17.9198C9.19906 16.2922 7.87956 14.9727 6.25188 14.9727C4.62419 14.9727 3.30469 16.2922 3.30469 17.9198C3.30469 19.5475 4.62419 20.867 6.25188 20.867Z" stroke="white" stroke-width="2.52616" stroke-linecap="round" stroke-linejoin="round"/>
<path d="M9.19922 17.9204H26.8823" stroke="white" stroke-width="2.52616" stroke-linecap="round" stroke-linejoin="round"/>
<path d="M26.8821 6.13135H20.9877C18.0405 6.13135 16.5669 7.60494 16.5669 10.5521V25.2881C16.5669 28.2353 18.0405 29.7089 20.9877 29.7089H26.8821" stroke="white" stroke-width="2.52616" stroke-linecap="round" stroke-linejoin="round"/>
</svg>
