<svg width="40" height="40" viewBox="0 0 40 40" fill="none" xmlns="http://www.w3.org/2000/svg">
<g clip-path="url(#clip0_684_121910)">
<rect width="40" height="40" rx="20" fill="white"/>
<path d="M20.3333 16.7393C22.302 16.7393 23.927 18.3643 23.927 20.333C23.927 22.333 22.302 23.9268 20.3333 23.9268C18.3333 23.9268 16.7395 22.333 16.7395 20.333C16.7395 18.3643 18.3333 16.7393 20.3333 16.7393ZM20.3333 22.6768C21.6145 22.6768 22.6458 21.6455 22.6458 20.333C22.6458 19.0518 21.6145 18.0205 20.3333 18.0205C19.0208 18.0205 17.9895 19.0518 17.9895 20.333C17.9895 21.6455 19.052 22.6768 20.3333 22.6768ZM24.8958 16.6143C24.8958 17.083 24.5208 17.458 24.052 17.458C23.5833 17.458 23.2083 17.083 23.2083 16.6143C23.2083 16.1455 23.5833 15.7705 24.052 15.7705C24.5208 15.7705 24.8958 16.1455 24.8958 16.6143ZM27.2708 17.458C27.3333 18.6143 27.3333 22.083 27.2708 23.2393C27.2083 24.3643 26.9583 25.333 26.1458 26.1768C25.3333 26.9893 24.3333 27.2393 23.2083 27.3018C22.052 27.3643 18.5833 27.3643 17.427 27.3018C16.302 27.2393 15.3333 26.9893 14.4895 26.1768C13.677 25.333 13.427 24.3643 13.3645 23.2393C13.302 22.083 13.302 18.6143 13.3645 17.458C13.427 16.333 13.677 15.333 14.4895 14.5205C15.3333 13.708 16.302 13.458 17.427 13.3955C18.5833 13.333 22.052 13.333 23.2083 13.3955C24.3333 13.458 25.3333 13.708 26.1458 14.5205C26.9583 15.333 27.2083 16.333 27.2708 17.458ZM25.7708 24.458C26.1458 23.5518 26.052 21.3643 26.052 20.333C26.052 19.333 26.1458 17.1455 25.7708 16.208C25.5208 15.6143 25.052 15.1143 24.4583 14.8955C23.5208 14.5205 21.3333 14.6143 20.3333 14.6143C19.302 14.6143 17.1145 14.5205 16.2083 14.8955C15.5833 15.1455 15.1145 15.6143 14.8645 16.208C14.4895 17.1455 14.5833 19.333 14.5833 20.333C14.5833 21.3643 14.4895 23.5518 14.8645 24.458C15.1145 25.083 15.5833 25.5518 16.2083 25.8018C17.1145 26.1768 19.302 26.083 20.3333 26.083C21.3333 26.083 23.5208 26.1768 24.4583 25.8018C25.052 25.5518 25.552 25.083 25.7708 24.458Z" fill="#888E9E"/>
</g>
<defs>
<clipPath id="clip0_684_121910">
<rect width="40" height="40" fill="white"/>
</clipPath>
</defs>
</svg>
