<svg width="40" height="40" viewBox="0 0 40 40" fill="none" xmlns="http://www.w3.org/2000/svg">
<path d="M27.0235 13.5895C30.986 17.552 30.986 23.9828 27.0235 27.9453C23.061 31.9077 16.6301 31.9077 12.6676 27.9453C8.70518 23.9828 8.70518 17.552 12.6676 13.5895C16.6301 9.62706 23.061 9.62706 27.0235 13.5895Z" stroke="white" stroke-width="2.43594" stroke-linecap="round" stroke-linejoin="round"/>
<path d="M13.7558 35.8217C10.5079 34.5226 7.66597 32.1678 5.78218 28.9037C3.93086 25.7045 3.31376 22.148 3.75223 18.7539" stroke="white" stroke-width="2.43594" stroke-linecap="round" stroke-linejoin="round"/>
<path d="M9.85791 7.95451C12.6186 5.79464 16.0777 4.51172 19.8453 4.51172C23.5316 4.51172 26.9257 5.76215 29.654 7.84082" stroke="white" stroke-width="2.43594" stroke-linecap="round" stroke-linejoin="round"/>
<path d="M25.9355 35.8217C29.1835 34.5226 32.0254 32.1678 33.9092 28.9037C35.7605 25.7045 36.3776 22.148 35.9392 18.7539" stroke="white" stroke-width="2.43594" stroke-linecap="round" stroke-linejoin="round"/>
</svg>
