<svg width="40" height="40" viewBox="0 0 40 40" fill="none" xmlns="http://www.w3.org/2000/svg">
<g clip-path="url(#clip0_684_121913)">
<rect width="40" height="40" rx="20" fill="white"/>
<path d="M26.3333 13.333C26.8645 13.333 27.3333 13.8018 27.3333 14.3643V26.333C27.3333 26.8955 26.8645 27.333 26.3333 27.333H14.302C13.7708 27.333 13.3333 26.8955 13.3333 26.333V14.3643C13.3333 13.8018 13.7708 13.333 14.302 13.333H26.3333ZM17.552 25.333V18.6768H15.4895V25.333H17.552ZM16.5208 17.7393C17.177 17.7393 17.7083 17.208 17.7083 16.5518C17.7083 15.8955 17.177 15.333 16.5208 15.333C15.8333 15.333 15.302 15.8955 15.302 16.5518C15.302 17.208 15.8333 17.7393 16.5208 17.7393ZM25.3333 25.333V21.6768C25.3333 19.8955 24.927 18.4893 22.8333 18.4893C21.8333 18.4893 21.1458 19.0518 20.8645 19.583H20.8333V18.6768H18.8645V25.333H20.927V22.0518C20.927 21.1768 21.0833 20.333 22.177 20.333C23.2395 20.333 23.2395 21.333 23.2395 22.083V25.333H25.3333Z" fill="#888E9E"/>
</g>
<defs>
<clipPath id="clip0_684_121913">
<rect width="40" height="40" fill="white"/>
</clipPath>
</defs>
</svg>
