<svg version="1.2" xmlns="http://www.w3.org/2000/svg" viewBox="0 0 285 286" width="285" height="286"><defs><linearGradient id="P" gradientUnits="userSpaceOnUse"/><radialGradient id="g1" cx="0" cy="0" r="1" href="#P" gradientTransform="matrix(277.951,0,0,277.951,4.102,142.867)"><stop offset=".38" stop-color="#f9b25c"/><stop offset="1" stop-color="#23b3f9"/></radialGradient><radialGradient id="g2" cx="0" cy="0" r="1" href="#P" gradientTransform="matrix(184.194,87.064,-87.064,184.194,31.862,90.392)"><stop stop-color="#1ab3ff"/><stop offset="1" stop-color="#ffb258"/></radialGradient></defs><style>.a{fill:#fff}.b{fill:none;stroke:#8777d6;stroke-width:3.4}.c{fill:none;stroke:url(#g1);stroke-width:3.4}.d{fill:url(#g2)}</style><path class="a" d="m55.3 4.1l176.4 0.6c27.9 0 50.4 22.7 50.4 50.6l-0.6 176.5c-0.1 27.8-22.7 50.4-50.6 50.3l-176.5-0.6c-27.9-0.1-50.4-22.7-50.3-50.6l0.5-176.5c0.1-27.9 22.8-50.4 50.7-50.3z"/><path class="b" d="m55.3 2.4l176.4 0.6c28.9 0.1 52.1 23.5 52 52.3l-0.5 176.5c-0.1 28.8-23.5 52-52.3 52l-176.5-0.6c-28.8-0.1-52.1-23.5-52-52.3l0.6-176.5c0-28.8 23.5-52.1 52.3-52z"/><path class="c" d="m55.3 2.4l176.4 0.6c28.9 0.1 52.1 23.5 52 52.3l-0.5 176.5c-0.1 28.8-23.5 52-52.3 52l-176.5-0.6c-28.8-0.1-52.1-23.5-52-52.3l0.6-176.5c0-28.8 23.5-52.1 52.3-52z"/><path fill-rule="evenodd" class="d" d="m91.6 87.4q6.8 0 10.8 4.2 4.1 4.2 4.1 12.4l-0.1 29.2-15-0.1 0.1-25.7q0-4.3-1.6-6.2-1.6-2-4.7-2-3.1 0-5.2 2.5-2 2.5-2.1 7.3v24.1l-14.9-0.1 0.1-25.7q0-4.3-1.6-6.2-1.6-2-4.7-2-3.1 0-5.2 2.5-2.1 2.5-2.1 7.3l-0.1 24.1h-14.9l0.1-44.7h14.4v6.1h0.3q5-7.1 13.8-7.1 4.6 0 7.9 1.9 3.4 1.9 5.2 5.7 3-3.4 6.5-5.4 3.6-2.1 8.9-2.1zm63.7 32.5q-0.9 3.4-3.6 6.8-2.7 3.2-7.6 5.5-4.9 2.2-11.9 2.1-11.2 0-17.5-6.2-6.3-6.3-6.3-17.1 0.1-11 6.3-17.2 6.3-6.3 17.5-6.3 11.1 0 17.3 6.2 6.4 6.2 6.4 17.7l-0.1 2.6-32-0.1q0 4.9 2.3 7.9 2.3 2.9 6.1 2.9 3.5 0 5.3-1.7 1.9-1.7 2.5-4.1zm-23.1-22.9q-3.7-0.1-5.9 2.3-2.2 2.3-2.4 6l16.6 0.1q-0.2-3.8-2.4-6.1-2.2-2.3-5.9-2.3zm-40.8 44.4q6.8 0 10.8 4.2 4.1 4.2 4.1 12.4l-0.1 29.2h-15l0.1-25.8q0-4.3-1.6-6.2-1.6-1.9-4.7-2-3.1 0-5.2 2.6-2 2.4-2 7.3l-0.1 24h-14.9l0.1-25.8q0-4.3-1.6-6.2-1.6-1.9-4.7-1.9-3.1-0.1-5.2 2.5-2 2.4-2.1 7.3v24h-15l0.1-44.7 14.4 0.1v6h0.3q5-7.1 13.9-7.1 4.5 0 7.9 2 3.3 1.8 5.1 5.6 3-3.4 6.5-5.4 3.6-2.1 8.9-2.1zm47.3 45.9q-1.2-1.5-1.2-6.5-1.6 3.6-5.6 5.6-3.9 2-8.9 1.9-3.9 0-7.3-1.6-3.5-1.6-5.5-4.5-2.1-3-2.1-7 0-6.8 4.5-10.2 4.4-3.3 13.5-4.5 4.6-0.6 7.1-1.2 2.4-0.7 3.4-1.4 1-0.9 1-2.2 0-2.1-1.7-3.2-1.6-1.2-4.5-1.2-2.7 0-4.8 1.5-2 1.5-2.8 4.3l-13.9-1.5q1.5-6.6 7.3-10.3 5.8-3.8 14.4-3.8 10.4 0.1 15.7 4.1 5.3 4 5.2 11.3v22.1q0 3.6 0.1 5.5 0.3 1.8 1 2.9zm-1.2-21.1q-0.9 0.6-3 1.1-2.1 0.4-4.6 0.8-6.6 1.3-6.6 5.9 0 2.3 1.4 3.6 1.5 1.3 4 1.3 2 0 4-0.9 2-0.9 3.4-2.9 1.4-2 1.4-5zm46.6 10.1l-0.1 11.1q-1.3 0.1-9 0.1-5.5 0-8.6-1-3.1-1-4.6-3.5-1.4-2.5-1.4-7.4l0.1-23.6-6.8-0.1v-9.3h6.8l0.1-12.3 14.9 0.1-0.1 12.3h8.9v9.3h-8.9l-0.1 20.1q0 2.7 1.1 3.5 1.2 0.7 4.4 0.7zm47-2.3q-0.9 3.5-3.6 6.8-2.7 3.3-7.6 5.6-4.8 2.1-11.9 2.1-11.2 0-17.5-6.3-6.3-6.2-6.2-17.1 0-11 6.2-17.2 6.4-6.3 17.6-6.2 11 0 17.3 6.2 6.3 6.1 6.3 17.6l-0.1 2.7-32-0.1q0 4.9 2.3 7.9 2.3 2.8 6.1 2.8 3.5 0.1 5.3-1.6 1.9-1.7 2.5-4.1zm-23.1-23q-3.7 0-5.9 2.4-2.2 2.2-2.3 6l16.5 0.1q-0.1-3.8-2.4-6.1-2.2-2.4-5.9-2.4z"/><path  d="m251.7 151.4l-3.1-7.8h1.8l1.9 5.1 1.9-5.1h1.8l-3.2 7.8zm-1.7-7.8v7.8h-2v-7.8zm6.6 0v7.8h-2v-7.8zm-12.3 0.6v7.2l-2-0.1 0.1-7.1zm2.4-0.7l-0.1 1.7-6.7-0.1v-1.6z"/><path fill-rule="evenodd" d="m38.7 209.7h-2.8v-8.8h2.9q1.3 0 2.2 0.6 1 0.5 1.5 1.5 0.5 1 0.4 2.3 0 1.4-0.5 2.4-0.5 1-1.4 1.5-1 0.5-2.3 0.5zm-1.5-1.1h1.4q1 0 1.7-0.4 0.7-0.4 1-1.1 0.3-0.7 0.3-1.8 0-1-0.3-1.7-0.3-0.8-1-1.1-0.6-0.4-1.6-0.4h-1.5zm15.1-3.2q0 1.4-0.6 2.4-0.5 1-1.4 1.6-0.9 0.5-2 0.5-1.2 0-2.1-0.5-0.8-0.6-1.4-1.6-0.5-1-0.5-2.4 0-1.4 0.6-2.4 0.5-1.1 1.4-1.6 0.9-0.5 2-0.5 1.2 0 2 0.5 0.9 0.6 1.5 1.6 0.5 1 0.5 2.4zm-1.4 0q0-1.1-0.3-1.8-0.3-0.8-0.9-1.1-0.6-0.4-1.4-0.4-0.8 0-1.3 0.4-0.6 0.3-1 1.1-0.3 0.7-0.3 1.8 0 1 0.3 1.8 0.3 0.7 0.9 1.1 0.6 0.4 1.4 0.4 0.7 0 1.3-0.4 0.6-0.4 1-1.1 0.3-0.7 0.3-1.8zm4.6 4.4l-2.4-8.8h1.4l1.7 6.8h0.1l1.8-6.8h1.4l1.7 6.8h0.1l1.7-6.8h1.4l-2.4 8.8h-1.4l-1.8-6.6h-0.1l-1.8 6.6zm17.2-8.7v8.8h-1.3l-4.4-6.5h-0.1v6.4h-1.3v-8.8h1.2l4.5 6.5h0.1v-6.4zm4.7 1.1v-1.1h6.8v1.1h-2.8v7.7h-1.3v-7.7zm15.6 3.3q0 1.4-0.5 2.5-0.6 1-1.5 1.5-0.9 0.5-2 0.5-1.1 0-2-0.5-0.9-0.6-1.4-1.6-0.6-1-0.5-2.4 0-1.4 0.5-2.4 0.5-1 1.4-1.6 0.9-0.5 2-0.5 1.2 0 2.1 0.6 0.9 0.5 1.4 1.5 0.5 1 0.5 2.4zm-1.3 0q0-1-0.4-1.8-0.3-0.7-0.9-1.1-0.6-0.4-1.4-0.4-0.7 0-1.3 0.4-0.6 0.4-1 1.1-0.3 0.7-0.3 1.8 0 1.1 0.3 1.8 0.4 0.8 0.9 1.1 0.6 0.4 1.4 0.4 0.8 0 1.4-0.3 0.6-0.4 0.9-1.2 0.4-0.7 0.4-1.8zm6.1 4.4v-8.8l3.3 0.1q0.9 0 1.5 0.3 0.6 0.3 0.9 0.8 0.3 0.5 0.3 1.2 0 0.5-0.2 0.9-0.2 0.4-0.5 0.6-0.4 0.2-0.8 0.3v0.1q0.5 0 0.9 0.3 0.4 0.3 0.7 0.7 0.3 0.5 0.3 1.2 0 0.7-0.4 1.2-0.3 0.5-0.9 0.8-0.7 0.4-1.7 0.4zm1.3-1.2h1.9q1 0 1.4-0.3 0.4-0.4 0.4-1 0-0.4-0.2-0.7-0.2-0.4-0.6-0.6-0.4-0.2-0.9-0.2h-2zm0-3.9l1.8 0.1q0.5 0 0.8-0.2 0.4-0.2 0.6-0.5 0.2-0.3 0.2-0.7 0-0.6-0.4-0.9-0.4-0.4-1.1-0.4h-1.9zm12.3-3.8h1.3v5.8q0 0.9-0.4 1.6-0.5 0.7-1.2 1.1-0.8 0.4-1.9 0.4-1 0-1.8-0.4-0.8-0.4-1.2-1.1-0.5-0.7-0.5-1.6v-5.8h1.4v5.7q0 0.6 0.2 1 0.3 0.5 0.8 0.8 0.4 0.2 1.1 0.2 0.7 0 1.2-0.2 0.5-0.3 0.7-0.8 0.3-0.4 0.3-1zm8 2.3q0-0.6-0.5-0.9-0.5-0.4-1.3-0.4-0.5 0-0.9 0.2-0.4 0.2-0.6 0.5-0.2 0.3-0.3 0.6 0 0.3 0.2 0.6 0.1 0.2 0.4 0.4 0.2 0.1 0.5 0.2 0.3 0.1 0.5 0.2l0.9 0.2q0.4 0.1 0.9 0.3 0.4 0.2 0.8 0.4 0.4 0.3 0.6 0.8 0.2 0.4 0.2 1 0 0.7-0.4 1.3-0.4 0.6-1.1 0.9-0.7 0.3-1.7 0.3-1 0-1.7-0.3-0.8-0.3-1.2-0.9-0.4-0.5-0.4-1.3h1.3q0 0.4 0.3 0.8 0.3 0.3 0.7 0.4 0.4 0.2 1 0.2 0.5 0 1-0.2 0.4-0.2 0.7-0.5 0.2-0.3 0.2-0.7 0-0.4-0.2-0.7-0.2-0.2-0.6-0.4-0.4-0.2-0.9-0.3l-1-0.3q-1-0.3-1.7-0.8-0.6-0.6-0.6-1.5 0-0.8 0.4-1.3 0.5-0.6 1.2-0.9 0.7-0.3 1.6-0.3 0.8 0 1.5 0.3 0.7 0.3 1.1 0.9 0.4 0.5 0.4 1.2zm4.3-2.3v8.8h-1.3v-8.8zm9 0.1v8.7h-1.2l-4.5-6.4-0.1 6.4h-1.3v-8.8h1.3l4.4 6.5h0.1v-6.5zm1.9 8.8l0.1-8.7h5.5v1.1h-4.2v2.7h3.9v1.1h-3.9v2.7h4.2v1.2zm12.1-6.5q-0.1-0.6-0.6-0.9-0.5-0.4-1.2-0.4-0.6 0-0.9 0.2-0.4 0.2-0.7 0.5-0.2 0.2-0.2 0.6 0 0.3 0.2 0.6 0.1 0.2 0.4 0.3 0.2 0.2 0.5 0.3 0.3 0.1 0.5 0.2l0.9 0.2q0.4 0.1 0.8 0.3 0.5 0.2 0.9 0.4 0.3 0.3 0.6 0.8 0.2 0.4 0.2 1 0 0.7-0.4 1.3-0.4 0.6-1.1 0.9-0.7 0.3-1.8 0.3-1 0-1.7-0.3-0.7-0.3-1.1-0.9-0.4-0.5-0.5-1.3h1.4q0 0.4 0.3 0.8 0.3 0.3 0.7 0.4 0.4 0.2 0.9 0.2 0.6 0 1-0.2 0.5-0.2 0.7-0.5 0.3-0.3 0.3-0.7 0-0.4-0.2-0.7-0.3-0.2-0.6-0.4-0.4-0.2-0.9-0.3l-1-0.3q-1.1-0.3-1.7-0.8-0.6-0.6-0.6-1.5 0-0.8 0.4-1.3 0.4-0.6 1.1-0.9 0.7-0.3 1.6-0.3 0.9 0 1.6 0.3 0.7 0.3 1.1 0.9 0.4 0.5 0.4 1.2zm7.8 0q-0.1-0.6-0.6-0.9-0.5-0.3-1.2-0.3-0.6 0-1 0.1-0.4 0.2-0.6 0.5-0.2 0.3-0.2 0.7 0 0.3 0.1 0.5 0.2 0.2 0.4 0.4 0.3 0.1 0.5 0.2 0.3 0.1 0.6 0.2l0.8 0.2q0.5 0.1 0.9 0.3 0.4 0.2 0.8 0.5 0.4 0.3 0.6 0.7 0.3 0.4 0.3 1 0 0.8-0.4 1.3-0.4 0.6-1.1 0.9-0.8 0.4-1.8 0.4-1 0-1.7-0.3-0.7-0.4-1.1-0.9-0.4-0.6-0.5-1.4h1.3q0.1 0.5 0.4 0.8 0.2 0.3 0.6 0.5 0.5 0.1 1 0.1 0.6 0 1-0.2 0.4-0.1 0.7-0.5 0.2-0.3 0.2-0.7 0-0.4-0.2-0.7-0.2-0.2-0.6-0.4-0.3-0.1-0.8-0.3l-1.1-0.2q-1-0.3-1.6-0.9-0.6-0.6-0.6-1.5 0-0.7 0.4-1.3 0.4-0.6 1.1-0.9 0.7-0.3 1.6-0.3 0.9 0 1.6 0.3 0.6 0.3 1 0.9 0.4 0.5 0.5 1.2z"/></svg>