<svg width="40" height="40" viewBox="0 0 40 40" fill="none" xmlns="http://www.w3.org/2000/svg">
<path d="M28.3442 10.6987C31.5922 12.956 33.8332 16.545 34.2879 20.6861" stroke="white" stroke-width="2.43594" stroke-linecap="round" stroke-linejoin="round"/>
<path d="M6.46973 20.7671C6.89196 16.6423 9.10054 13.0533 12.316 10.7798" stroke="white" stroke-width="2.43594" stroke-linecap="round" stroke-linejoin="round"/>
<path d="M14.103 34.6851C15.9868 35.6432 18.1305 36.1791 20.3878 36.1791C22.5639 36.1791 24.6101 35.6919 26.4451 34.7987" stroke="white" stroke-width="2.43594" stroke-linecap="round" stroke-linejoin="round"/>
<path d="M20.3872 13.1835C22.8805 13.1835 24.9018 11.1623 24.9018 8.66891C24.9018 6.17556 22.8805 4.1543 20.3872 4.1543C17.8938 4.1543 15.8726 6.17556 15.8726 8.66891C15.8726 11.1623 17.8938 13.1835 20.3872 13.1835Z" stroke="white" stroke-width="2.43594" stroke-linecap="round" stroke-linejoin="round"/>
<path d="M8.64547 33.0282C11.1388 33.0282 13.1601 31.007 13.1601 28.5136C13.1601 26.0203 11.1388 23.999 8.64547 23.999C6.15212 23.999 4.13086 26.0203 4.13086 28.5136C4.13086 31.007 6.15212 33.0282 8.64547 33.0282Z" stroke="white" stroke-width="2.43594" stroke-linecap="round" stroke-linejoin="round"/>
<path d="M31.9331 33.0282C34.4264 33.0282 36.4477 31.007 36.4477 28.5136C36.4477 26.0203 34.4264 23.999 31.9331 23.999C29.4397 23.999 27.4185 26.0203 27.4185 28.5136C27.4185 31.007 29.4397 33.0282 31.9331 33.0282Z" stroke="white" stroke-width="2.43594" stroke-linecap="round" stroke-linejoin="round"/>
</svg>
